<svg xmlns="http://www.w3.org/2000/svg" xmlns:xlink="http://www.w3.org/1999/xlink" width="1080" zoomAndPan="magnify" viewBox="0 0 810 809.999993" height="1080" preserveAspectRatio="xMidYMid meet" version="1.0"><defs><g/><clipPath id="579e99bf4b"><path d="M 297.609375 326.15625 L 550.753906 326.15625 L 550.753906 529.945312 L 297.609375 529.945312 Z M 297.609375 326.15625 " clip-rule="nonzero"/></clipPath><clipPath id="83fbb51ceb"><path d="M 338.109375 326.15625 L 510.128906 326.15625 C 532.496094 326.15625 550.628906 344.289062 550.628906 366.65625 L 550.628906 489.445312 C 550.628906 511.8125 532.496094 529.945312 510.128906 529.945312 L 338.109375 529.945312 C 315.742188 529.945312 297.609375 511.8125 297.609375 489.445312 L 297.609375 366.65625 C 297.609375 344.289062 315.742188 326.15625 338.109375 326.15625 Z M 338.109375 326.15625 " clip-rule="nonzero"/></clipPath><clipPath id="300353ecbe"><path d="M 297.609375 341.015625 L 613 341.015625 L 613 443.5625 L 297.609375 443.5625 Z M 297.609375 341.015625 " clip-rule="nonzero"/></clipPath><clipPath id="745019804e"><path d="M 574.886719 351.089844 L 610.804688 387.011719 C 612.207031 388.410156 612.992188 390.308594 612.992188 392.289062 C 612.992188 394.269531 612.207031 396.164062 610.804688 397.566406 L 574.886719 433.484375 C 568.433594 439.9375 559.683594 443.5625 550.558594 443.5625 L 360.042969 443.5625 C 350.917969 443.5625 342.167969 439.9375 335.714844 433.484375 L 299.792969 397.566406 C 298.394531 396.164062 297.609375 394.269531 297.609375 392.289062 C 297.609375 390.308594 298.394531 388.410156 299.792969 387.011719 L 335.714844 351.089844 C 342.167969 344.640625 350.917969 341.015625 360.042969 341.015625 L 550.558594 341.015625 C 559.683594 341.015625 568.433594 344.640625 574.886719 351.089844 Z M 574.886719 351.089844 " clip-rule="nonzero"/></clipPath><clipPath id="8d05955976"><path d="M 307 405 L 432.136719 405 L 432.136719 484 L 307 484 Z M 307 405 " clip-rule="nonzero"/></clipPath><clipPath id="3b03596e20"><path d="M 324 487 L 353 487 L 353 515.25 L 324 515.25 Z M 324 487 " clip-rule="nonzero"/></clipPath><clipPath id="dd23198691"><path d="M 364 487 L 393 487 L 393 515.25 L 364 515.25 Z M 364 487 " clip-rule="nonzero"/></clipPath><clipPath id="85601cdf52"><path d="M 248.386719 452 L 321 452 L 321 462 L 248.386719 462 Z M 248.386719 452 " clip-rule="nonzero"/></clipPath></defs><rect x="-81" width="972" fill="#ffffff" y="-80.999999" height="971.999992" fill-opacity="1"/><rect x="-81" width="972" fill="#ffffff" y="-80.999999" height="971.999992" fill-opacity="1"/><g clip-path="url(#579e99bf4b)"><g clip-path="url(#83fbb51ceb)"><path fill="#ffffff" d="M 297.609375 326.15625 L 550.753906 326.15625 L 550.753906 529.945312 L 297.609375 529.945312 Z M 297.609375 326.15625 " fill-opacity="1" fill-rule="nonzero"/></g></g><g clip-path="url(#300353ecbe)"><g clip-path="url(#745019804e)"><path fill="#ffffff" d="M 297.609375 341.015625 L 612.863281 341.015625 L 612.863281 443.5625 L 297.609375 443.5625 Z M 297.609375 341.015625 " fill-opacity="1" fill-rule="nonzero"/></g></g><g fill="#ff9e01" fill-opacity="1"><g transform="translate(352.28808, 402.514951)"><g><path d="M 14.921875 -34.4375 C 16.753906 -34.4375 18.546875 -34.171875 20.296875 -33.640625 C 22.046875 -33.109375 23.34375 -32.582031 24.1875 -32.0625 L 25.421875 -31.234375 L 22.296875 -25.09375 C 22.054688 -25.257812 21.71875 -25.46875 21.28125 -25.71875 C 20.84375 -25.976562 20.019531 -26.328125 18.8125 -26.765625 C 17.613281 -27.203125 16.492188 -27.421875 15.453125 -27.421875 C 14.171875 -27.421875 13.179688 -27.144531 12.484375 -26.59375 C 11.785156 -26.050781 11.4375 -25.316406 11.4375 -24.390625 C 11.4375 -23.929688 11.597656 -23.503906 11.921875 -23.109375 C 12.253906 -22.710938 12.816406 -22.285156 13.609375 -21.828125 C 14.398438 -21.378906 15.097656 -21.019531 15.703125 -20.75 C 16.304688 -20.476562 17.234375 -20.066406 18.484375 -19.515625 C 20.671875 -18.585938 22.535156 -17.320312 24.078125 -15.71875 C 25.628906 -14.125 26.40625 -12.316406 26.40625 -10.296875 C 26.40625 -8.347656 26.054688 -6.648438 25.359375 -5.203125 C 24.660156 -3.753906 23.703125 -2.617188 22.484375 -1.796875 C 21.265625 -0.984375 19.914062 -0.378906 18.4375 0.015625 C 16.96875 0.410156 15.375 0.609375 13.65625 0.609375 C 12.175781 0.609375 10.722656 0.457031 9.296875 0.15625 C 7.878906 -0.132812 6.691406 -0.503906 5.734375 -0.953125 C 4.785156 -1.410156 3.925781 -1.859375 3.15625 -2.296875 C 2.394531 -2.734375 1.832031 -3.101562 1.46875 -3.40625 L 0.9375 -3.859375 L 4.796875 -10.328125 C 5.117188 -10.054688 5.566406 -9.707031 6.140625 -9.28125 C 6.722656 -8.863281 7.742188 -8.296875 9.203125 -7.578125 C 10.660156 -6.867188 11.953125 -6.515625 13.078125 -6.515625 C 16.328125 -6.515625 17.953125 -7.625 17.953125 -9.84375 C 17.953125 -10.300781 17.835938 -10.726562 17.609375 -11.125 C 17.378906 -11.519531 16.96875 -11.914062 16.375 -12.3125 C 15.789062 -12.71875 15.269531 -13.035156 14.8125 -13.265625 C 14.363281 -13.492188 13.625 -13.847656 12.59375 -14.328125 C 11.570312 -14.804688 10.816406 -15.171875 10.328125 -15.421875 C 8.273438 -16.429688 6.6875 -17.691406 5.5625 -19.203125 C 4.445312 -20.722656 3.890625 -22.359375 3.890625 -24.109375 C 3.890625 -27.140625 5.007812 -29.617188 7.25 -31.546875 C 9.5 -33.472656 12.054688 -34.4375 14.921875 -34.4375 Z M 14.921875 -34.4375 "/></g></g></g><g fill="#ff9e01" fill-opacity="1"><g transform="translate(379.834843, 402.514951)"><g><path d="M 2.453125 0 L 2.453125 -35.265625 L 9.71875 -35.265625 L 9.71875 -18.8125 L 9.796875 -18.8125 C 11.679688 -20.695312 13.691406 -21.640625 15.828125 -21.640625 C 16.867188 -21.640625 17.898438 -21.503906 18.921875 -21.234375 C 19.941406 -20.960938 20.921875 -20.539062 21.859375 -19.96875 C 22.804688 -19.394531 23.570312 -18.582031 24.15625 -17.53125 C 24.75 -16.476562 25.046875 -15.253906 25.046875 -13.859375 L 25.046875 0 L 17.796875 0 L 17.796875 -11.890625 C 17.796875 -12.984375 17.445312 -13.9375 16.75 -14.75 C 16.050781 -15.570312 15.140625 -15.984375 14.015625 -15.984375 C 12.921875 -15.984375 11.929688 -15.5625 11.046875 -14.71875 C 10.160156 -13.875 9.71875 -12.929688 9.71875 -11.890625 L 9.71875 0 Z M 2.453125 0 "/></g></g></g><g fill="#ff9e01" fill-opacity="1"><g transform="translate(406.930686, 402.514951)"><g><path d="M 4.4375 -2.5 C 2.101562 -4.570312 0.9375 -7.234375 0.9375 -10.484375 C 0.9375 -13.742188 2.148438 -16.414062 4.578125 -18.5 C 7.015625 -20.59375 10.023438 -21.640625 13.609375 -21.640625 C 17.140625 -21.640625 20.113281 -20.585938 22.53125 -18.484375 C 24.945312 -16.378906 26.15625 -13.710938 26.15625 -10.484375 C 26.15625 -7.265625 24.972656 -4.609375 22.609375 -2.515625 C 20.242188 -0.429688 17.242188 0.609375 13.609375 0.609375 C 9.835938 0.609375 6.78125 -0.425781 4.4375 -2.5 Z M 10.0625 -14.0625 C 9.125 -13.132812 8.65625 -11.945312 8.65625 -10.5 C 8.65625 -9.050781 9.101562 -7.867188 10 -6.953125 C 10.90625 -6.035156 12.097656 -5.578125 13.578125 -5.578125 C 14.992188 -5.578125 16.160156 -6.039062 17.078125 -6.96875 C 17.992188 -7.894531 18.453125 -9.070312 18.453125 -10.5 C 18.453125 -11.945312 17.976562 -13.132812 17.03125 -14.0625 C 16.09375 -14.988281 14.941406 -15.453125 13.578125 -15.453125 C 12.179688 -15.453125 11.007812 -14.988281 10.0625 -14.0625 Z M 10.0625 -14.0625 "/></g></g></g><g fill="#ff9e01" fill-opacity="1"><g transform="translate(434.026529, 402.514951)"><g><path d="M 24.109375 -18.421875 C 26.078125 -16.285156 27.0625 -13.65625 27.0625 -10.53125 C 27.0625 -7.414062 26.078125 -4.78125 24.109375 -2.625 C 22.140625 -0.46875 19.640625 0.609375 16.609375 0.609375 C 13.816406 0.609375 11.519531 -0.265625 9.71875 -2.015625 L 9.71875 10.65625 L 2.453125 10.65625 L 2.453125 -21.03125 L 9.640625 -21.03125 L 9.640625 -18.65625 L 9.71875 -18.65625 C 11.519531 -20.644531 13.816406 -21.640625 16.609375 -21.640625 C 19.640625 -21.640625 22.140625 -20.566406 24.109375 -18.421875 Z M 17.9375 -6.96875 C 18.882812 -7.894531 19.359375 -9.082031 19.359375 -10.53125 C 19.359375 -11.976562 18.90625 -13.160156 18 -14.078125 C 17.09375 -14.992188 15.90625 -15.453125 14.4375 -15.453125 C 13.007812 -15.453125 11.835938 -14.988281 10.921875 -14.0625 C 10.003906 -13.132812 9.546875 -11.957031 9.546875 -10.53125 C 9.546875 -9.082031 10.015625 -7.894531 10.953125 -6.96875 C 11.898438 -6.039062 13.0625 -5.578125 14.4375 -5.578125 C 15.820312 -5.578125 16.988281 -6.039062 17.9375 -6.96875 Z M 17.9375 -6.96875 "/></g></g></g><g fill="#ff9e01" fill-opacity="1"><g transform="translate(462.0242, 402.514951)"><g><path d="M 30.875 -33.828125 L 14.109375 -6.765625 L 29.765625 -6.765625 L 29.765625 0 L 0.65625 0 L 17.390625 -27.0625 L 3.03125 -27.0625 L 3.03125 -33.828125 Z M 30.875 -33.828125 "/></g></g></g><g fill="#ff9e01" fill-opacity="1"><g transform="translate(493.547201, 402.514951)"><g><path d="M 3.15625 -32.75 C 4 -33.601562 5.007812 -34.03125 6.1875 -34.03125 C 7.363281 -34.03125 8.375 -33.601562 9.21875 -32.75 C 10.070312 -31.90625 10.5 -30.894531 10.5 -29.71875 C 10.5 -28.550781 10.070312 -27.539062 9.21875 -26.6875 C 8.375 -25.84375 7.363281 -25.421875 6.1875 -25.421875 C 5.007812 -25.421875 4 -25.84375 3.15625 -26.6875 C 2.3125 -27.539062 1.890625 -28.550781 1.890625 -29.71875 C 1.890625 -30.894531 2.3125 -31.90625 3.15625 -32.75 Z M 2.453125 -21.03125 L 2.453125 0 L 9.71875 0 L 9.71875 -21.03125 Z M 2.453125 -21.03125 "/></g></g></g><g fill="#ff9e01" fill-opacity="1"><g transform="translate(505.926847, 402.514951)"><g><path d="M 2.453125 0 L 2.453125 -35.265625 L 9.71875 -35.265625 L 9.71875 0 Z M 2.453125 0 "/></g></g></g><g fill="#ff9e01" fill-opacity="1"><g transform="translate(518.101529, 402.514951)"><g><path d="M 2.453125 0 L 2.453125 -35.265625 L 9.71875 -35.265625 L 9.71875 0 Z M 2.453125 0 "/></g></g></g><g fill="#ff9e01" fill-opacity="1"><g transform="translate(530.276211, 402.514951)"><g><path d="M 3.890625 -2.609375 C 1.921875 -4.753906 0.9375 -7.382812 0.9375 -10.5 C 0.9375 -13.613281 1.921875 -16.25 3.890625 -18.40625 C 5.859375 -20.5625 8.359375 -21.640625 11.390625 -21.640625 C 14.179688 -21.640625 16.476562 -20.769531 18.28125 -19.03125 L 18.28125 -21.03125 L 25.546875 -21.03125 L 25.546875 0 L 18.375 0 L 18.375 -2.375 L 18.28125 -2.375 C 16.476562 -0.382812 14.179688 0.609375 11.390625 0.609375 C 8.359375 0.609375 5.859375 -0.460938 3.890625 -2.609375 Z M 10.0625 -14.0625 C 9.125 -13.132812 8.65625 -11.945312 8.65625 -10.5 C 8.65625 -9.050781 9.101562 -7.867188 10 -6.953125 C 10.90625 -6.035156 12.097656 -5.578125 13.578125 -5.578125 C 14.992188 -5.578125 16.160156 -6.039062 17.078125 -6.96875 C 17.992188 -7.894531 18.453125 -9.070312 18.453125 -10.5 C 18.453125 -11.945312 17.976562 -13.132812 17.03125 -14.0625 C 16.09375 -14.988281 14.941406 -15.453125 13.578125 -15.453125 C 12.179688 -15.453125 11.007812 -14.988281 10.0625 -14.0625 Z M 10.0625 -14.0625 "/></g></g></g><g clip-path="url(#8d05955976)"><path fill="#ff9e01" d="M 432.136719 426.550781 L 419.429688 479.429688 C 419.429688 479.9375 419.332031 480.425781 419.136719 480.894531 C 418.941406 481.363281 418.664062 481.777344 418.304688 482.136719 C 417.949219 482.496094 417.535156 482.773438 417.066406 482.96875 C 416.597656 483.164062 416.109375 483.261719 415.605469 483.261719 L 330 483.882812 C 329.492188 483.882812 329.003906 483.785156 328.535156 483.589844 C 328.066406 483.394531 327.65625 483.117188 327.296875 482.757812 C 326.9375 482.398438 326.660156 481.984375 326.46875 481.515625 C 326.273438 481.046875 326.175781 480.558594 326.171875 480.050781 L 326.171875 426.542969 C 326.171875 426.4375 326.175781 426.335938 326.183594 426.230469 L 325.027344 415.878906 L 312.375 415.878906 C 312.027344 415.863281 311.683594 415.816406 311.347656 415.738281 C 311.007812 415.65625 310.683594 415.546875 310.367188 415.402344 C 310.050781 415.261719 309.75 415.089844 309.464844 414.890625 C 309.179688 414.6875 308.917969 414.464844 308.679688 414.210938 C 308.4375 413.960938 308.222656 413.691406 308.035156 413.398438 C 307.847656 413.105469 307.6875 412.800781 307.558594 412.476562 C 307.429688 412.152344 307.332031 411.820312 307.265625 411.480469 C 307.199219 411.140625 307.167969 410.792969 307.167969 410.445312 C 307.167969 410.097656 307.199219 409.753906 307.265625 409.414062 C 307.332031 409.070312 307.429688 408.738281 307.558594 408.417969 C 307.6875 408.09375 307.847656 407.789062 308.035156 407.496094 C 308.222656 407.203125 308.4375 406.933594 308.679688 406.679688 C 308.917969 406.429688 309.179688 406.203125 309.464844 406.003906 C 309.75 405.804688 310.050781 405.632812 310.367188 405.488281 C 310.683594 405.347656 311.007812 405.234375 311.347656 405.15625 C 311.683594 405.078125 312.027344 405.03125 312.375 405.015625 L 334.710938 405.015625 C 334.714844 405.035156 334.714844 405.054688 334.710938 405.074219 L 335.917969 415.882812 L 336.683594 422.714844 L 428.308594 422.714844 C 428.816406 422.714844 429.304688 422.816406 429.773438 423.011719 C 430.238281 423.207031 430.652344 423.484375 431.011719 423.84375 C 431.371094 424.203125 431.648438 424.617188 431.839844 425.085938 C 432.035156 425.554688 432.132812 426.042969 432.136719 426.550781 Z M 432.136719 426.550781 " fill-opacity="1" fill-rule="nonzero"/></g><g clip-path="url(#3b03596e20)"><path fill="#ff7312" d="M 352.808594 501.273438 C 352.808594 502.191406 352.71875 503.097656 352.542969 504 C 352.363281 504.898438 352.097656 505.773438 351.746094 506.621094 C 351.398438 507.46875 350.96875 508.273438 350.460938 509.035156 C 349.949219 509.796875 349.371094 510.503906 348.726562 511.152344 C 348.078125 511.800781 347.375 512.378906 346.613281 512.890625 C 345.851562 513.398438 345.046875 513.828125 344.203125 514.179688 C 343.355469 514.53125 342.484375 514.796875 341.585938 514.976562 C 340.6875 515.15625 339.78125 515.246094 338.867188 515.246094 C 337.949219 515.246094 337.042969 515.15625 336.144531 514.976562 C 335.246094 514.796875 334.375 514.53125 333.53125 514.179688 C 332.683594 513.828125 331.878906 513.398438 331.121094 512.890625 C 330.359375 512.378906 329.652344 511.800781 329.007812 511.152344 C 328.359375 510.503906 327.78125 509.796875 327.273438 509.035156 C 326.765625 508.273438 326.335938 507.46875 325.984375 506.621094 C 325.632812 505.773438 325.371094 504.898438 325.191406 504 C 325.011719 503.097656 324.921875 502.191406 324.921875 501.273438 C 324.921875 500.355469 325.011719 499.445312 325.191406 498.546875 C 325.371094 497.648438 325.632812 496.773438 325.984375 495.925781 C 326.335938 495.078125 326.765625 494.273438 327.273438 493.511719 C 327.78125 492.746094 328.359375 492.042969 329.007812 491.394531 C 329.652344 490.742188 330.359375 490.164062 331.121094 489.65625 C 331.878906 489.144531 332.683594 488.714844 333.53125 488.363281 C 334.375 488.011719 335.246094 487.746094 336.144531 487.570312 C 337.042969 487.390625 337.949219 487.300781 338.867188 487.300781 C 339.78125 487.300781 340.6875 487.390625 341.585938 487.570312 C 342.484375 487.746094 343.355469 488.011719 344.203125 488.363281 C 345.046875 488.714844 345.851562 489.144531 346.613281 489.65625 C 347.375 490.164062 348.078125 490.742188 348.726562 491.394531 C 349.371094 492.042969 349.949219 492.746094 350.460938 493.511719 C 350.96875 494.273438 351.398438 495.078125 351.746094 495.925781 C 352.097656 496.773438 352.363281 497.648438 352.542969 498.546875 C 352.71875 499.445312 352.808594 500.355469 352.808594 501.273438 Z M 352.808594 501.273438 " fill-opacity="1" fill-rule="nonzero"/></g><g clip-path="url(#dd23198691)"><path fill="#ff7312" d="M 392.164062 501.273438 C 392.164062 502.191406 392.074219 503.097656 391.894531 504 C 391.714844 504.898438 391.449219 505.773438 391.101562 506.621094 C 390.75 507.46875 390.320312 508.273438 389.8125 509.035156 C 389.304688 509.796875 388.726562 510.503906 388.078125 511.152344 C 387.429688 511.800781 386.726562 512.378906 385.964844 512.890625 C 385.203125 513.398438 384.402344 513.828125 383.554688 514.179688 C 382.707031 514.53125 381.835938 514.796875 380.9375 514.976562 C 380.042969 515.15625 379.132812 515.246094 378.21875 515.246094 C 377.304688 515.246094 376.398438 515.15625 375.5 514.976562 C 374.601562 514.796875 373.730469 514.53125 372.882812 514.179688 C 372.035156 513.828125 371.234375 513.398438 370.472656 512.890625 C 369.710938 512.378906 369.007812 511.800781 368.359375 511.152344 C 367.710938 510.503906 367.132812 509.796875 366.625 509.035156 C 366.117188 508.273438 365.6875 507.46875 365.335938 506.621094 C 364.988281 505.773438 364.722656 504.898438 364.542969 504 C 364.363281 503.097656 364.277344 502.191406 364.277344 501.273438 C 364.277344 500.355469 364.363281 499.445312 364.542969 498.546875 C 364.722656 497.648438 364.988281 496.773438 365.335938 495.925781 C 365.6875 495.078125 366.117188 494.273438 366.625 493.511719 C 367.132812 492.746094 367.710938 492.042969 368.359375 491.394531 C 369.007812 490.742188 369.710938 490.164062 370.472656 489.65625 C 371.234375 489.144531 372.035156 488.714844 372.882812 488.363281 C 373.730469 488.011719 374.601562 487.746094 375.5 487.570312 C 376.398438 487.390625 377.304688 487.300781 378.21875 487.300781 C 379.132812 487.300781 380.042969 487.390625 380.9375 487.570312 C 381.835938 487.746094 382.707031 488.011719 383.554688 488.363281 C 384.402344 488.714844 385.203125 489.144531 385.964844 489.65625 C 386.726562 490.164062 387.429688 490.742188 388.078125 491.394531 C 388.726562 492.042969 389.304688 492.746094 389.8125 493.511719 C 390.320312 494.273438 390.75 495.078125 391.101562 495.925781 C 391.449219 496.773438 391.714844 497.648438 391.894531 498.546875 C 392.074219 499.445312 392.164062 500.355469 392.164062 501.273438 Z M 392.164062 501.273438 " fill-opacity="1" fill-rule="nonzero"/></g><path fill="#ff9e01" d="M 284.949219 427.371094 L 316.867188 427.371094 C 317.359375 427.371094 317.832031 427.464844 318.289062 427.65625 C 318.746094 427.84375 319.144531 428.113281 319.496094 428.464844 C 319.84375 428.8125 320.113281 429.214844 320.300781 429.671875 C 320.488281 430.128906 320.582031 430.601562 320.582031 431.097656 L 320.582031 432.027344 C 320.582031 432.523438 320.488281 433 320.300781 433.453125 C 320.113281 433.910156 319.84375 434.3125 319.496094 434.664062 C 319.144531 435.011719 318.746094 435.28125 318.289062 435.472656 C 317.832031 435.660156 317.359375 435.753906 316.867188 435.753906 L 284.949219 435.753906 C 284.457031 435.753906 283.980469 435.660156 283.527344 435.472656 C 283.070312 435.28125 282.667969 435.011719 282.320312 434.664062 C 281.972656 434.3125 281.703125 433.910156 281.515625 433.453125 C 281.324219 433 281.230469 432.523438 281.230469 432.027344 L 281.230469 431.097656 C 281.230469 430.601562 281.324219 430.128906 281.515625 429.671875 C 281.703125 429.214844 281.972656 428.8125 282.320312 428.464844 C 282.667969 428.113281 283.070312 427.84375 283.527344 427.65625 C 283.980469 427.464844 284.457031 427.371094 284.949219 427.371094 Z M 284.949219 427.371094 " fill-opacity="1" fill-rule="nonzero"/><path fill="#ff9e01" d="M 284.949219 479.535156 L 316.867188 479.535156 C 317.359375 479.535156 317.832031 479.632812 318.289062 479.820312 C 318.746094 480.007812 319.144531 480.277344 319.496094 480.628906 C 319.84375 480.976562 320.113281 481.378906 320.300781 481.835938 C 320.488281 482.292969 320.582031 482.769531 320.582031 483.261719 L 320.582031 484.195312 C 320.582031 484.6875 320.488281 485.164062 320.300781 485.621094 C 320.113281 486.078125 319.84375 486.480469 319.496094 486.828125 C 319.144531 487.179688 318.746094 487.445312 318.289062 487.636719 C 317.832031 487.824219 317.359375 487.917969 316.867188 487.917969 L 284.949219 487.917969 C 284.457031 487.917969 283.980469 487.824219 283.527344 487.636719 C 283.070312 487.445312 282.667969 487.179688 282.320312 486.828125 C 281.972656 486.480469 281.703125 486.078125 281.515625 485.621094 C 281.324219 485.164062 281.230469 484.6875 281.230469 484.195312 L 281.230469 483.261719 C 281.230469 482.769531 281.324219 482.292969 281.515625 481.835938 C 281.703125 481.378906 281.972656 480.976562 282.320312 480.628906 C 282.667969 480.277344 283.070312 480.007812 283.527344 479.820312 C 283.980469 479.632812 284.457031 479.535156 284.949219 479.535156 Z M 284.949219 479.535156 " fill-opacity="1" fill-rule="nonzero"/><g clip-path="url(#85601cdf52)"><path fill="#ff9e01" d="M 252.570312 452.832031 L 316.402344 452.832031 C 316.675781 452.832031 316.949219 452.859375 317.21875 452.914062 C 317.488281 452.96875 317.746094 453.046875 318 453.152344 C 318.253906 453.257812 318.496094 453.386719 318.726562 453.539062 C 318.953125 453.691406 319.164062 453.867188 319.359375 454.0625 C 319.554688 454.253906 319.726562 454.46875 319.878906 454.695312 C 320.03125 454.925781 320.160156 455.167969 320.265625 455.421875 C 320.371094 455.675781 320.449219 455.9375 320.503906 456.207031 C 320.558594 456.476562 320.585938 456.75 320.585938 457.023438 C 320.585938 457.300781 320.558594 457.574219 320.503906 457.84375 C 320.449219 458.113281 320.371094 458.375 320.265625 458.628906 C 320.160156 458.882812 320.03125 459.125 319.878906 459.355469 C 319.726562 459.582031 319.554688 459.792969 319.359375 459.988281 C 319.164062 460.183594 318.953125 460.359375 318.726562 460.511719 C 318.496094 460.664062 318.253906 460.792969 318 460.898438 C 317.746094 461.003906 317.488281 461.082031 317.21875 461.136719 C 316.949219 461.191406 316.675781 461.214844 316.402344 461.214844 L 252.570312 461.214844 C 252.292969 461.214844 252.023438 461.191406 251.753906 461.136719 C 251.484375 461.082031 251.222656 461.003906 250.96875 460.898438 C 250.714844 460.792969 250.472656 460.664062 250.246094 460.511719 C 250.015625 460.359375 249.804688 460.183594 249.609375 459.988281 C 249.417969 459.792969 249.242188 459.582031 249.089844 459.355469 C 248.9375 459.125 248.808594 458.882812 248.703125 458.628906 C 248.597656 458.375 248.519531 458.113281 248.464844 457.84375 C 248.414062 457.574219 248.386719 457.300781 248.386719 457.023438 C 248.386719 456.75 248.414062 456.476562 248.464844 456.207031 C 248.519531 455.9375 248.597656 455.675781 248.703125 455.421875 C 248.808594 455.167969 248.9375 454.925781 249.089844 454.695312 C 249.242188 454.46875 249.417969 454.253906 249.609375 454.0625 C 249.804688 453.867188 250.015625 453.691406 250.246094 453.539062 C 250.472656 453.386719 250.714844 453.257812 250.96875 453.152344 C 251.222656 453.046875 251.484375 452.96875 251.753906 452.914062 C 252.023438 452.859375 252.292969 452.832031 252.570312 452.832031 Z M 252.570312 452.832031 " fill-opacity="1" fill-rule="nonzero"/></g></svg>